<?xml version="1.0" encoding="UTF-8"?>
<svg width="200pt" version="1.1" xmlns="http://www.w3.org/2000/svg" height="163pt" viewBox="0 0 200 163" xmlns:xlink="http://www.w3.org/1999/xlink">
 <defs>
  <clipPath id="Clip0">
   <path d="M0 0 L0 162.536 L200 162.536 L200 0 L0 0 Z" transform="translate(0, 0.463867)"/>
  </clipPath>
 </defs>
 <g id="Background">
  <g id="Group1" clip-path="url(#Clip0)">
   <path style="fill:#ffffff; fill-rule:nonzero;stroke:none;" d="M200 19.2402 C192.642 22.5039 184.733 24.7099 176.434 25.7011 C184.904 20.623 191.411 12.582 194.475 3 C186.546 7.70312 177.765 11.1172 168.418 12.957 C160.934 4.98242 150.27 0 138.468 0 C115.808 0 97.4355 18.3711 97.4355 41.0312 C97.4355 44.247 97.7979 47.3789 98.498 50.3828 C64.3965 48.6709 34.1611 32.3359 13.9238 7.51074 C10.3916 13.5703 8.36816 20.6191 8.36816 28.1386 C8.36816 42.375 15.6113 54.9336 26.6221 62.292 C19.8965 62.0791 13.5684 60.2334 8.03711 57.1601 C8.0332 57.331 8.0332 57.5029 8.0332 57.6757 C8.0332 77.5566 22.1768 94.1396 40.9482 97.9101 C37.5049 98.8476 33.8799 99.3496 30.1377 99.3496 C27.4941 99.3496 24.9229 99.0918 22.418 98.6132 C27.6396 114.914 42.793 126.778 60.748 127.108 C46.7051 138.114 29.0127 144.674 9.78809 144.674 C6.47559 144.674 3.20996 144.479 0 144.1 C18.1592 155.742 39.7275 162.536 62.8984 162.536 C138.372 162.536 179.645 100.012 179.645 45.789 C179.645 44.0107 179.604 42.2412 179.525 40.4804 C187.543 34.6953 194.499 27.4687 200 19.2402 Z" transform="translate(0, 0.463867)"/>
  </g>
 </g>
</svg>
